<?xml version="1.0" encoding="utf-8"?>
<!-- Generator: Adobe Illustrator 24.3.0, SVG Export Plug-In . SVG Version: 6.00 Build 0)  -->
<svg version="1.1" id="Capa_1" xmlns="http://www.w3.org/2000/svg" xmlns:xlink="http://www.w3.org/1999/xlink" x="0px" y="0px"
	 viewBox="0 0 512 512" style="enable-background:new 0 0 512 512;" xml:space="preserve">
<style type="text/css">
	.st0{fill:#F44040;}
</style>
<g id="warning">
	<path class="st0" d="M285.8,97.4C275.6,81,254,75.9,237.6,86.1c-4.6,2.9-8.5,6.7-11.3,11.3L51.9,377.5c-10.2,16.4-5.2,38,11.2,48.3
		c5.6,3.5,12,5.3,18.5,5.3h348.6c19.4,0,35.1-15.7,35.1-35c0-6.5-1.8-13-5.3-18.5L285.8,97.4z M256,385.5L256,385.5
		c-9.2,0.4-17.1-6.8-17.5-16c-0.4-9.2,6.8-17.1,16-17.5c0.5,0,0.9,0,1.4,0l0,0c9.3-0.2,16.9,7.1,17.2,16.3s-7.1,16.9-16.3,17.2
		C256.5,385.5,256.3,385.5,256,385.5L256,385.5z M272.8,309.2c0,9.3-7.5,16.8-16.7,16.8c0,0,0,0,0,0l0,0c-9.3,0-16.8-7.5-16.8-16.8
		l0,0V195.9c0-9.3,7.5-16.8,16.8-16.8c0,0,0,0,0,0l0,0c9.3,0,16.8,7.5,16.8,16.7c0,0,0,0,0,0V309.2z"/>
</g>
</svg>
