<?xml version="1.0" encoding="utf-8"?>
<!-- Generator: Adobe Illustrator 24.3.0, SVG Export Plug-In . SVG Version: 6.00 Build 0)  -->
<svg version="1.1" id="Capa_1" xmlns="http://www.w3.org/2000/svg" xmlns:xlink="http://www.w3.org/1999/xlink" x="0px" y="0px"
	 viewBox="0 0 64 64" style="enable-background:new 0 0 64 64;" xml:space="preserve">
<style type="text/css">
	.st0{fill:#57EA69;}
</style>
<path class="st0" d="M32,5.5c-7,0-13.8,2.8-18.7,7.8c-5,5-7.8,11.7-7.8,18.7C7,67.2,57,67.2,58.5,32c0-7-2.8-13.8-7.8-18.7
	C45.8,8.3,39,5.5,32,5.5L32,5.5z M46.1,22.7L30.1,43.2c-0.1,0.2-0.3,0.3-0.5,0.4c-0.2,0.1-0.4,0.2-0.7,0.2c-0.2,0-0.5-0.1-0.7-0.2
	c-0.2-0.1-0.4-0.2-0.5-0.4l-9.8-12.5c-0.2-0.3-0.3-0.7-0.3-1.1c0.1-0.4,0.3-0.7,0.6-1c0.3-0.2,0.7-0.4,1.1-0.3c0.4,0,0.7,0.2,1,0.5
	l8.6,11l14.9-19c0.3-0.3,0.6-0.4,1-0.5c0.4,0,0.7,0.1,1,0.3c0.3,0.2,0.5,0.6,0.6,0.9C46.4,22,46.3,22.3,46.1,22.7L46.1,22.7z"/>
</svg>
