<?xml version="1.0" encoding="utf-8"?>
<!-- Generator: Adobe Illustrator 24.3.0, SVG Export Plug-In . SVG Version: 6.00 Build 0)  -->
<svg version="1.1" id="Capa_1" xmlns="http://www.w3.org/2000/svg" xmlns:xlink="http://www.w3.org/1999/xlink" x="0px" y="0px"
	 viewBox="0 0 100 100" style="enable-background:new 0 0 100 100;" xml:space="preserve">
<g id="Layer_2">
	<g id="Layer_1-2">
		<path d="M94.9,13.25H74.49V9.18c0.01-2.25-1.81-4.08-4.06-4.09c-0.01,0-0.02,0-0.03,0H29.59c-2.25-0.01-4.08,1.81-4.09,4.06
			c0,0.01,0,0.02,0,0.03v4.07H5.1c-2.26,0-4.09,1.83-4.09,4.09c0,2.26,1.83,4.09,4.09,4.09h8.16v61.23
			c0,6.76,5.48,12.25,12.25,12.25h48.99c6.76,0,12.25-5.48,12.25-12.25V21.43h8.16c2.26,0,4.09-1.83,4.09-4.09
			C98.99,15.08,97.16,13.25,94.9,13.25C94.9,13.25,94.9,13.25,94.9,13.25z M78.58,82.66c-0.01,2.25-1.84,4.07-4.09,4.07H25.51
			c-2.25,0-4.08-1.82-4.09-4.07V21.43h57.16V82.66z"/>
		<path d="M37.75,74.49c2.25,0,4.08-1.82,4.09-4.07V37.75c0-2.26-1.83-4.09-4.09-4.09c-2.26,0-4.09,1.83-4.09,4.09v32.67
			C33.67,72.66,35.5,74.49,37.75,74.49z"/>
		<path d="M62.25,74.49c2.25,0,4.08-1.82,4.09-4.07V37.75c0-2.26-1.83-4.09-4.09-4.09c-2.26,0-4.09,1.83-4.09,4.09v32.67
			C58.17,72.66,59.99,74.49,62.25,74.49z"/>
	</g>
</g>
</svg>
