<?xml version="1.0" encoding="utf-8"?>
<!-- Generator: Adobe Illustrator 24.3.0, SVG Export Plug-In . SVG Version: 6.00 Build 0)  -->
<svg version="1.1" id="Capa_1" xmlns="http://www.w3.org/2000/svg" xmlns:xlink="http://www.w3.org/1999/xlink" x="0px" y="0px"
	 viewBox="0 0 436 106" style="enable-background:new 0 0 436 106;" xml:space="preserve">
<style type="text/css">
	.st0{fill:#F8B11E;}
</style>
<rect width="436" height="106"/>
<g>
	<path class="st0" d="M6.59,71.63c-0.28-4.59-0.6-8.26-0.97-11.02c2.42,1.08,4.57,1.83,6.46,2.25c1.89,0.42,3.55,0.63,4.97,0.63
		c1.88,0,3.37-0.27,4.48-0.82s1.67-1.36,1.67-2.44c0-0.37-0.05-0.72-0.16-1.05c-0.11-0.33-0.31-0.71-0.61-1.13
		c-0.3-0.42-0.73-0.88-1.3-1.37l-6.09-5.3c-1.43-1.21-2.42-2.08-2.98-2.62c-1.14-1.1-2.04-2.12-2.67-3.07
		c-0.64-0.95-1.1-1.91-1.39-2.89s-0.44-2.02-0.44-3.12c0-1.31,0.23-2.6,0.69-3.86c0.46-1.26,1.16-2.44,2.08-3.54
		c0.93-1.1,2.15-2.05,3.68-2.84c1.53-0.8,3.17-1.34,4.91-1.63s3.54-0.44,5.4-0.44c3.64,0,7.61,0.42,11.89,1.26
		c0.06,1.49,0.14,2.85,0.23,4.09c0.09,1.24,0.29,3.41,0.61,6.51c-1.98-0.8-3.79-1.35-5.43-1.67c-1.64-0.31-3.05-0.47-4.23-0.47
		c-1.68,0-3.08,0.31-4.19,0.94s-1.66,1.4-1.66,2.33c0,0.43,0.09,0.85,0.26,1.26c0.17,0.41,0.5,0.89,0.97,1.44
		c0.47,0.55,1.1,1.15,1.87,1.81s1.99,1.63,3.65,2.92l2.33,1.84c0.69,0.56,1.43,1.24,2.23,2.04c0.8,0.8,1.49,1.58,2.07,2.36
		c0.58,0.78,1.03,1.49,1.34,2.13c0.31,0.65,0.54,1.3,0.69,1.96c0.15,0.66,0.23,1.36,0.23,2.12c0,1.94-0.46,3.79-1.39,5.54
		c-0.93,1.76-2.24,3.2-3.94,4.33c-1.7,1.13-3.57,1.92-5.61,2.38c-2.04,0.45-4.19,0.68-6.45,0.68C16.32,73.15,11.92,72.65,6.59,71.63
		z"/>
	<path class="st0" d="M67.23,62.81c-0.39,1.81-0.72,3.58-1,5.3l-0.71,3.94c-2.13,0.47-3.8,0.78-4.99,0.91s-2.35,0.19-3.47,0.19
		c-1.83,0-3.46-0.16-4.88-0.47c-1.42-0.31-2.61-0.88-3.56-1.71c-0.95-0.83-1.59-1.78-1.94-2.86c-0.35-1.08-0.52-2.22-0.52-3.43
		c0-0.21,0.01-0.6,0.03-1.15c0.02-0.55,0.1-1.77,0.23-3.67l0.71-11.18h-5.04c0.11-1.49,0.2-3.45,0.29-5.88l0.1-3.01h5.36
		c0.13-0.99,0.29-3.16,0.48-6.5l5.53-1.13c1.01-0.19,3.17-0.69,6.47-1.49c-0.15,2.82-0.26,5.86-0.32,9.11h7.37
		c-0.17,4.48-0.26,7.45-0.26,8.89h-7.44l-0.39,8.08c-0.04,1.21-0.06,1.98-0.06,2.33c0,1.03,0.11,1.9,0.34,2.58
		c0.23,0.69,0.62,1.19,1.2,1.49s1.2,0.45,1.89,0.45c0.52,0,1.06-0.04,1.62-0.11C64.81,63.43,65.8,63.2,67.23,62.81z"/>
	<path class="st0" d="M90.59,38.47c2.67,0,5.24,0.41,7.71,1.23c2.47,0.82,4.55,2,6.25,3.54c1.7,1.54,2.96,3.34,3.77,5.4
		s1.21,4.27,1.21,6.64c0,2.31-0.36,4.5-1.08,6.58c-0.72,2.08-1.94,4.03-3.67,5.85c-1.72,1.82-3.92,3.18-6.58,4.09
		c-2.66,0.91-5.48,1.36-8.45,1.36c-2.74,0-5.37-0.4-7.89-1.2s-4.63-1.96-6.32-3.49c-1.69-1.53-2.96-3.36-3.81-5.5
		c-0.85-2.13-1.28-4.37-1.28-6.72c0-2.35,0.41-4.59,1.24-6.72c0.83-2.13,2.14-4.05,3.94-5.75c1.8-1.7,4.02-3.01,6.67-3.93
		S87.73,38.47,90.59,38.47z M90.37,47.97c-1.38,0-2.61,0.36-3.68,1.07c-1.08,0.71-1.89,1.75-2.44,3.12
		c-0.55,1.37-0.82,2.86-0.82,4.48c0,2.37,0.59,4.18,1.78,5.45c1.18,1.26,2.67,1.89,4.46,1.89c1.36,0,2.57-0.36,3.65-1.08
		c1.08-0.72,1.89-1.79,2.44-3.2c0.55-1.41,0.82-2.92,0.82-4.54c0-1.34-0.22-2.54-0.65-3.62c-0.43-1.08-1.14-1.94-2.12-2.59
		C92.83,48.3,91.68,47.97,90.37,47.97z"/>
	<path class="st0" d="M141.85,62c-0.11,0.86-0.37,2.45-0.78,4.75l-0.84,5.17c-3.38,0.82-6.69,1.23-9.92,1.23
		c-2.35,0-4.41-0.24-6.17-0.71c-2.09-0.56-3.96-1.55-5.62-2.97c-1.7-1.47-2.94-3.2-3.72-5.2c-0.93-2.35-1.39-4.98-1.39-7.89
		c0-2.67,0.45-5.25,1.36-7.72c0.9-2.48,2.24-4.52,4.01-6.12c1.77-1.6,3.73-2.68,5.88-3.23c2.15-0.55,4.54-0.82,7.14-0.82
		c1.53,0,3.07,0.08,4.62,0.24c1.55,0.16,3.47,0.51,5.75,1.05l0.06,0.74c0.06,0.78,0.11,1.57,0.15,2.38c0.03,0.81,0.1,2.08,0.21,3.83
		l0.19,2.88c-3.08-1.08-5.81-1.62-8.18-1.62c-1.7,0-3.19,0.33-4.48,0.99c-1.28,0.66-2.23,1.61-2.84,2.84
		c-0.61,1.24-0.92,2.68-0.92,4.32c0,1.66,0.27,3.05,0.82,4.17c0.55,1.12,1.43,1.96,2.63,2.52c1.21,0.56,2.53,0.84,3.98,0.84
		c0.73,0,1.6-0.08,2.6-0.23s1.87-0.32,2.62-0.5C139.77,62.74,140.71,62.43,141.85,62z"/>
	<path class="st0" d="M147.64,72.31c0.3-2.76,0.51-5,0.64-6.72c0.17-2.35,0.34-5.29,0.51-8.82l0.35-7.66
		c0.15-3.47,0.26-6.79,0.32-9.96c0.09-3.79,0.13-7.44,0.13-10.96c3.02,0.04,5.28,0.06,6.79,0.06c1.75,0,3.82-0.02,6.21-0.06
		c-0.5,5.65-0.95,12.66-1.37,21.04c-0.41,8.38-0.62,16.08-0.62,23.08c-2.5-0.04-4.61-0.06-6.33-0.06
		C152.31,72.25,150.09,72.27,147.64,72.31z M161.89,53.74l5.56-8.01l4.17-6.42c2.97,0.04,5.22,0.06,6.75,0.06
		c2.11,0,4.61-0.02,7.5-0.06l-6.43,8.36c-1.51,1.92-3.05,3.98-4.62,6.2c1.51,2.78,5.14,8.93,10.89,18.44
		c-2.52-0.04-4.79-0.06-6.82-0.06c-2.07,0-4.44,0.02-7.11,0.06l-2-4.04c-0.71-1.4-1.33-2.58-1.84-3.53
		c-0.19-0.39-1.67-3.03-4.43-7.93L161.89,53.74z"/>
	<path class="st0" d="M189.43,72.31c0.41-4.03,0.7-7.37,0.88-10.02c0.33-4.7,0.67-11.13,1.04-19.29c0.26-5.69,0.39-9.7,0.39-12.02
		v-2.78c3.59,0.04,6.07,0.06,7.43,0.06c0.9,0,3.23-0.02,6.97-0.06l-1.53,24.14l-0.78,19.97l-7.01-0.06
		C195.83,72.25,193.37,72.27,189.43,72.31z M205.62,49.02l7.24-9.85l5.85-8.2l1.81-2.78c4.01,0.04,6.72,0.06,8.14,0.06
		c0.39,0,2.96-0.02,7.72-0.06l-13.64,17.21l-2.55,3.46l2.39,3.82l13.51,19.63l-7.95-0.06c-1.72,0-4.64,0.02-8.76,0.06
		C216.61,67.07,212.02,59.31,205.62,49.02z"/>
	<path class="st0" d="M271.72,62.55c-0.28,1.29-0.82,4.42-1.62,9.37c-2.5,0.5-4.6,0.82-6.3,0.99c-1.7,0.16-3.43,0.24-5.17,0.24
		c-2.56,0-4.92-0.18-7.08-0.53c-2.16-0.36-4.01-0.98-5.58-1.89c-1.56-0.9-2.87-2.03-3.93-3.38c-1.06-1.34-1.86-2.94-2.41-4.79
		c-0.55-1.85-0.82-3.76-0.82-5.71c0-2.76,0.55-5.45,1.65-8.09c1.1-2.64,2.51-4.7,4.25-6.18c1.73-1.49,3.73-2.54,6-3.16
		s4.58-0.94,6.95-0.94c2.46,0,4.8,0.29,7.03,0.86c2.23,0.57,4.12,1.57,5.67,2.99c1.55,1.42,2.66,3.03,3.31,4.82
		c0.66,1.79,0.99,3.72,0.99,5.79c0,1.23-0.14,2.6-0.42,4.11l-22.66,0.03c-0.02,0.34-0.03,0.65-0.03,0.93c0,2.32,0.83,4.02,2.49,5.12
		s3.68,1.64,6.08,1.64c1.42,0,3.04-0.17,4.86-0.5C266.8,63.91,269.04,63.35,271.72,62.55z M251.84,52.11h10.67
		c0.02-0.37,0.03-0.68,0.03-0.94c0-1.12-0.2-2.08-0.6-2.88c-0.4-0.8-0.97-1.38-1.71-1.75c-0.74-0.37-1.58-0.55-2.5-0.55
		c-0.65,0-1.27,0.1-1.88,0.31c-0.6,0.21-1.15,0.51-1.63,0.91c-0.49,0.4-0.89,0.86-1.21,1.37c-0.32,0.52-0.56,1.02-0.71,1.5
		C252.14,50.58,251.99,51.25,251.84,52.11z"/>
	<path class="st0" d="M281.93,48.72c0.41-2.13,0.67-3.6,0.78-4.41c0.11-0.81,0.28-2.07,0.52-3.8c6.21-1.36,11.54-2.04,16-2.04
		c2.54,0,4.87,0.29,6.98,0.86c2.11,0.57,3.76,1.49,4.95,2.76c1.18,1.27,1.78,3.09,1.78,5.46c0,1.21-0.16,3.92-0.48,8.15
		c-0.32,4.22-0.57,9.76-0.74,16.61c-2.11-0.04-4.21-0.06-6.31-0.06c-2.03,0-4.18,0.02-6.47,0.06c0.29-2.37,0.62-7.26,0.98-14.67
		c-0.82,0.39-1.46,0.67-1.92,0.84c-0.46,0.17-1.27,0.43-2.43,0.78c-1.16,0.34-2.07,0.64-2.72,0.87c-0.66,0.24-1.23,0.54-1.71,0.91
		c-0.48,0.37-0.83,0.74-1.03,1.13s-0.31,0.82-0.31,1.29c0,0.73,0.29,1.36,0.87,1.87c0.58,0.52,1.51,0.78,2.78,0.78
		c0.45,0,0.94-0.04,1.45-0.11c0.52-0.08,1.23-0.26,2.13-0.57c-0.62,1.66-1.37,4.08-2.23,7.27c-1.85,0.3-3.61,0.45-5.27,0.45
		c-2.67,0-4.9-0.37-6.67-1.11c-1.78-0.74-3.15-1.94-4.1-3.6c-0.96-1.66-1.44-3.32-1.44-4.98c0-1.01,0.18-2,0.53-2.97
		s0.91-1.92,1.66-2.84c0.75-0.93,1.64-1.72,2.65-2.38c1.01-0.66,2.4-1.28,4.15-1.86c1.76-0.58,3.98-1.13,6.67-1.65
		c1.12-0.21,2.15-0.45,3.09-0.7c0.94-0.25,1.6-0.46,2-0.65c0.4-0.18,0.72-0.4,0.97-0.65c0.25-0.25,0.42-0.51,0.53-0.78
		c0.11-0.27,0.16-0.55,0.16-0.86c0-0.82-0.34-1.45-1.03-1.89c-0.69-0.44-1.7-0.66-3.04-0.66C291.95,45.58,287.38,46.63,281.93,48.72
		z"/>
	<path class="st0" d="M343.01,62.81c-0.39,1.81-0.72,3.58-1,5.3l-0.71,3.94c-2.13,0.47-3.8,0.78-4.99,0.91
		c-1.2,0.13-2.35,0.19-3.47,0.19c-1.83,0-3.46-0.16-4.88-0.47c-1.42-0.31-2.61-0.88-3.55-1.71c-0.95-0.83-1.6-1.78-1.94-2.86
		c-0.34-1.08-0.52-2.22-0.52-3.43c0-0.21,0.01-0.6,0.03-1.15c0.02-0.55,0.1-1.77,0.22-3.67l0.71-11.18h-5.04
		c0.11-1.49,0.2-3.45,0.29-5.88l0.1-3.01h5.36c0.13-0.99,0.29-3.16,0.48-6.5l5.53-1.13c1.01-0.19,3.17-0.69,6.47-1.49
		c-0.15,2.82-0.26,5.86-0.32,9.11h7.37c-0.17,4.48-0.26,7.45-0.26,8.89h-7.44l-0.39,8.08c-0.04,1.21-0.06,1.98-0.06,2.33
		c0,1.03,0.11,1.9,0.34,2.58c0.23,0.69,0.63,1.19,1.2,1.49c0.57,0.3,1.2,0.45,1.89,0.45c0.52,0,1.06-0.04,1.62-0.11
		C340.6,63.43,341.59,63.2,343.01,62.81z"/>
	<path class="st0" d="M366.38,38.47c2.67,0,5.24,0.41,7.71,1.23c2.47,0.82,4.55,2,6.25,3.54c1.7,1.54,2.96,3.34,3.77,5.4
		c0.81,2.06,1.21,4.27,1.21,6.64c0,2.31-0.36,4.5-1.08,6.58c-0.72,2.08-1.95,4.03-3.67,5.85c-1.72,1.82-3.92,3.18-6.58,4.09
		c-2.66,0.91-5.48,1.36-8.45,1.36c-2.74,0-5.37-0.4-7.89-1.2c-2.52-0.8-4.63-1.96-6.32-3.49c-1.69-1.53-2.96-3.36-3.81-5.5
		c-0.85-2.13-1.28-4.37-1.28-6.72c0-2.35,0.41-4.59,1.24-6.72c0.83-2.13,2.14-4.05,3.94-5.75c1.8-1.7,4.02-3.01,6.67-3.93
		S363.52,38.47,366.38,38.47z M366.16,47.97c-1.38,0-2.61,0.36-3.68,1.07c-1.08,0.71-1.89,1.75-2.44,3.12
		c-0.55,1.37-0.82,2.86-0.82,4.48c0,2.37,0.59,4.18,1.78,5.45c1.19,1.26,2.67,1.89,4.46,1.89c1.36,0,2.57-0.36,3.65-1.08
		c1.08-0.72,1.89-1.79,2.44-3.2c0.55-1.41,0.82-2.92,0.82-4.54c0-1.34-0.22-2.54-0.65-3.62c-0.43-1.08-1.14-1.94-2.12-2.59
		C368.62,48.3,367.47,47.97,366.16,47.97z"/>
	<path class="st0" d="M389.78,72.31c0.62-4.89,1.1-10.29,1.43-16.21c0.33-5.91,0.53-11.51,0.59-16.79c2.59,0.04,4.82,0.06,6.7,0.06
		c2.18,0,4.27-0.02,6.28-0.06l-0.32,4.4c0.71-0.8,1.33-1.43,1.84-1.89c0.52-0.46,1.16-0.92,1.92-1.36c0.76-0.44,1.58-0.8,2.44-1.08
		c0.86-0.28,1.8-0.5,2.83-0.66c1.02-0.16,2.09-0.24,3.22-0.24c1.55,0,3.06,0.17,4.54,0.5c1.48,0.33,2.71,0.81,3.7,1.42
		c0.99,0.61,1.82,1.38,2.49,2.29c0.67,0.92,1.11,1.9,1.33,2.96c0.21,1.06,0.32,2.14,0.32,3.26c0,0.82-0.09,2.59-0.26,5.3l-0.56,11.7
		c-0.11,2.31-0.16,4.44-0.16,6.4c-2.17-0.04-4.21-0.06-6.1-0.06c-2.56,0-4.9,0.02-7.01,0.06c0.2-1.96,0.4-4.88,0.62-8.74
		c0.22-3.87,0.33-6.59,0.33-8.16c0-2.43-0.47-4.13-1.41-5.09c-0.94-0.96-2.12-1.44-3.54-1.44c-1.25,0-2.43,0.41-3.54,1.23
		c-1.11,0.82-1.97,2.01-2.57,3.57c-0.6,1.56-1.03,4.13-1.28,7.71c-0.25,3.58-0.42,7.22-0.5,10.92c-2.15-0.04-4.25-0.06-6.3-0.06
		C394.64,72.25,392.3,72.27,389.78,72.31z"/>
</g>
</svg>
